<?xml version="1.0" encoding="UTF-8"?>
<!DOCTYPE svg PUBLIC "-//W3C//DTD SVG 1.1//EN" "http://www.w3.org/Graphics/SVG/1.1/DTD/svg11.dtd">
<!-- Creator: CorelDRAW -->
<svg xmlns="http://www.w3.org/2000/svg" xml:space="preserve" width="2048px" height="2048px" style="shape-rendering:geometricPrecision; text-rendering:geometricPrecision; image-rendering:optimizeQuality; fill-rule:evenodd; clip-rule:evenodd"
viewBox="0 0 2048 2048"
 xmlns:xlink="http://www.w3.org/1999/xlink">
 <defs>
  <style type="text/css">
   <![CDATA[
    .fil0 {fill:none}
    .fil1 {fill:#212121;fill-rule:nonzero}
   ]]>
  </style>
 </defs>
 <g id="Layer_x0020_1">
  <metadata id="CorelCorpID_0Corel-Layer"/>
  <rect class="fil0" width="2048" height="2048"/>
  <rect class="fil0" x="255.999" y="255.999" width="1536" height="1536"/>
  <path class="fil1" d="M1472.03 789.588c34.4752,0 66.0355,-17.3929 89.1851,-45.5103 24.5669,-29.8394 39.7654,-71.5253 39.7654,-117.98 0,-48.6142 -4.84607,-91.8898 -23.7425,-120.859 -17.1815,-26.3398 -49.0524,-42.6343 -105.208,-42.6343 -56.1591,0 -88.03,16.2945 -105.211,42.6343 -18.8941,28.9677 -23.7378,72.2445 -23.7378,120.859 0,46.4575 15.1973,88.1422 39.7642,117.983 23.1484,28.1162 54.7075,45.5079 89.1851,45.5079zm138.435 -5.01024c-35.1048,42.6378 -84.0272,69.0119 -138.435,69.0119 -54.4099,0 -103.331,-26.3729 -138.435,-69.0095 -33.6815,-40.9111 -54.5162,-96.9721 -54.5162,-158.483 0,-59.3493 6.98623,-113.824 34.2402,-155.609 28.9701,-44.413 77.5784,-71.8855 158.711,-71.8855 81.1276,0 129.736,27.4725 158.707,71.8855 27.2563,41.7839 34.2449,96.2599 34.2449,155.609 0,61.5107 -20.8358,117.571 -54.5174,158.48z"/>
  <path class="fil1" d="M1743.8 1165.64c-1.38543,-87.5623 -7.21418,-143.02 -32.2607,-177.363 -22.8862,-31.3819 -65.9186,-49.6241 -141.653,-64.4823 -17.2217,13.4162 -49.3843,31.4563 -97.8556,31.4563 -48.4772,0 -80.6434,-18.0414 -97.865,-31.4575 -48.7725,9.57048 -83.9823,20.5524 -108.987,35.55 8.35512,-24.9083 13.7516,-50.8453 16.1894,-77.0552 27.0248,-9.5256 58.9808,-17.2866 96.8942,-24.1299l18.6366 -3.36378 11.8642 14.739c0.0496063,0.0614174 16.976,21.7158 63.2682,21.7158 46.2827,0 63.2103,-21.6543 63.2599,-21.7158l11.863 -14.739 18.6378 3.36378c102.618,18.5232 161.621,43.7658 197.249,92.6186 34.9725,47.954 42.9213,113.341 44.5111,213.864l0.0708662 4.40079c0.188977,11.635 0.376772,23.1591 0.376772,23.7449l-3.75118 14.8748c-0.16063,0.307087 -53.5418,107.346 -332.217,107.346 -9.98859,0 -19.6547,-0.152362 -29.0729,-0.418111 -4.42678,-22.3736 -10.5,-44.1638 -18.8847,-64.6382 15.0083,0.680315 30.9591,1.05473 47.9575,1.05473 200.094,0 258.155,-50.752 271.956,-67.6713 -0.0212599,-7.54134 -0.068504,-10.3772 -0.115748,-13.2933l-0.0708662 -4.40079z"/>
  <path class="fil1" d="M1024.04 1031.56c43.8307,0 83.8631,-21.9992 113.144,-57.5658 30.7004,-37.2874 49.6914,-89.2607 49.6914,-147.083 0,-59.9788 -6.09095,-113.542 -29.8465,-149.959 -22.0406,-33.789 -62.3823,-54.6898 -132.989,-54.6898 -70.6123,0 -110.954,20.9008 -132.992,54.6898 -23.7532,36.4158 -29.8418,89.9788 -29.8418,149.959 0,57.8233 18.9898,109.799 49.689,147.086 29.2796,35.5642 69.3107,57.5622 113.145,57.5622zm162.393 -17.0658c-41.2359,50.0882 -98.6292,81.0674 -162.393,81.0674 -63.7678,0 -121.16,-30.9792 -162.395,-81.0638 -39.8126,-48.3591 -64.441,-114.71 -64.441,-187.586 0,-70.7138 8.23111,-135.476 40.3441,-184.709 33.8256,-51.8622 90.9048,-83.941 186.491,-83.941 95.5784,0 152.658,32.0788 186.488,83.941 32.1142,49.2319 40.3488,113.995 40.3488,184.709 0,72.8764 -24.6284,139.225 -64.4434,187.583z"/>
  <path class="fil1" d="M1359.73 1475.22c-1.69961,-107.361 -8.97875,-175.538 -40.3418,-218.544 -29.1473,-39.9662 -83.2938,-62.8323 -178.616,-81.28 -19.2024,15.6425 -57.4158,38.5111 -116.738,38.5111 -59.3292,0 -97.5461,-22.8685 -116.749,-38.5111 -94.2839,18.2504 -148.297,40.8414 -177.663,80.0375 -31.4398,41.9658 -39.2114,108.237 -41.1579,212.387l-0.0732284 3.86929c-0.142913,7.54134 -0.271654,14.3469 -0.312992,27.261 15.4299,19.9996 85.5083,86.4485 335.955,86.4485 250.449,0 320.524,-66.4548 335.948,-86.452 -0.0259843,-9.64135 -0.0944883,-13.9169 -0.164173,-18.1973l-0.0885827 -5.52993zm11.1591 -256.044c41.289,56.6174 50.6882,134.725 52.5922,255.045l0.0885827 5.52993c0.214961,13.2142 0.426378,26.1402 0.426378,28.4362l-3.75118 14.8748c-0.190158,0.360236 -62.9953,126.339 -396.211,126.339 -333.227,0 -396.03,-125.979 -396.22,-126.339l-3.75118 -14.8748c0,-7.11378 0.270473,-21.3213 0.577559,-37.4965l0.0732284 -3.86929c2.19567,-117.533 12.2764,-194.068 53.9091,-249.639 42.1134,-56.2122 112.078,-85.6217 233.086,-107.466l18.5965 -3.35788 11.9043 14.7331c0.0649607,0.0814961 22.5366,28.8142 81.8245,28.8142 59.2772,0 81.7489,-28.7327 81.8138,-28.8142l11.9043 -14.7331 18.5965 3.35788c122.406,22.0949 192.593,51.9426 234.54,109.46z"/>
  <path class="fil1" d="M575.967 789.588c-34.4752,0 -66.0355,-17.3929 -89.1851,-45.5103 -24.5669,-29.8394 -39.7654,-71.5253 -39.7654,-117.98 0,-48.6142 4.84607,-91.8898 23.7425,-120.859 17.1815,-26.3398 49.0524,-42.6343 105.208,-42.6343 56.1591,0 88.03,16.2945 105.211,42.6343 18.8941,28.9677 23.7378,72.2445 23.7378,120.859 0,46.4575 -15.1973,88.1422 -39.7642,117.983 -23.1484,28.1162 -54.7075,45.5079 -89.1851,45.5079zm-138.435 -5.01024c35.1048,42.6378 84.0272,69.0119 138.435,69.0119 54.4099,0 103.331,-26.3729 138.435,-69.0095 33.6815,-40.9111 54.5162,-96.9721 54.5162,-158.483 0,-59.3493 -6.98623,-113.824 -34.2402,-155.609 -28.9701,-44.413 -77.5784,-71.8855 -158.711,-71.8855 -81.1276,0 -129.736,27.4725 -158.707,71.8855 -27.2563,41.7839 -34.2449,96.2599 -34.2449,155.609 0,61.5107 20.8358,117.571 54.5174,158.48z"/>
  <path class="fil1" d="M304.198 1165.64c1.38543,-87.5623 7.21418,-143.02 32.2607,-177.363 22.8862,-31.3819 65.9186,-49.6241 141.653,-64.4823 17.2217,13.4162 49.3843,31.4563 97.8556,31.4563 48.4772,0 80.6434,-18.0414 97.865,-31.4575 48.7725,9.57048 83.9823,20.5524 108.987,35.55 -8.35512,-24.9083 -13.7516,-50.8453 -16.1894,-77.0552 -27.0248,-9.5256 -58.9808,-17.2866 -96.8942,-24.1299l-18.6366 -3.36378 -11.8642 14.739c-0.0496063,0.0614174 -16.976,21.7158 -63.2682,21.7158 -46.2827,0 -63.2103,-21.6543 -63.2599,-21.7158l-11.863 -14.739 -18.6378 3.36378c-102.618,18.5232 -161.621,43.7658 -197.249,92.6186 -34.9725,47.954 -42.9213,113.341 -44.5111,213.864l-0.0708662 4.40079c-0.188977,11.635 -0.376772,23.1591 -0.376772,23.7449l3.75118 14.8748c0.16063,0.307087 53.5418,107.346 332.217,107.346 9.98859,0 19.6547,-0.152362 29.0729,-0.418111 4.42678,-22.3736 10.5,-44.1638 18.8847,-64.6382 -15.0083,0.680315 -30.9591,1.05473 -47.9575,1.05473 -200.094,0 -258.155,-50.752 -271.956,-67.6713 0.0212599,-7.54134 0.068504,-10.3772 0.115748,-13.2933l0.0708662 -4.40079z"/>
 </g>
</svg>
