<?xml version="1.0" encoding="utf-8"?>
<!-- Generator: Adobe Illustrator 21.0.0, SVG Export Plug-In . SVG Version: 6.00 Build 0)  -->
<svg version="1.1" id="Layer_1" xmlns="http://www.w3.org/2000/svg" xmlns:xlink="http://www.w3.org/1999/xlink" x="0px" y="0px"
	 viewBox="0 0 512 512" style="enable-background:new 0 0 512 512;" xml:space="preserve">
<style type="text/css">
	.st0{fill:#FFFFFF;}
	.st1{fill:#E85558;}
	.st2{fill:#FBC749;}
	.st3{fill:#75B4E2;}
	.st4{fill:#18171D;}
</style>
<g id="Original_Concept">
	<g>
		<path class="st0" d="M320.2,267.6c0-22.4,18.2-40.6,40.6-40.6c3.5,0,7,0.5,10.3,1.3c1-6.2,1.6-12.5,1.6-18.8
			c0-64.3-52.3-116.6-116.6-116.6s-116.6,52.3-116.6,116.6c0,44.8,26.2,86.1,66.6,105.4l3.2,1.5v15.4h32.4v-67.3h-20.6
			c-7.9,0-14.4-6.4-14.4-14.4s6.4-14.4,14.4-14.4c7.9,0,14.4,6.4,14.4,14.4c0,1.1-0.1,2.1-0.3,3.1h41.8c-0.2-1-0.3-2-0.3-3.1
			c0-7.9,6.4-14.4,14.4-14.4c7.9,0,14.4,6.4,14.4,14.4s-6.4,14.4-14.4,14.4h-20.5v67.3h32.4v-15.4l3.2-1.5
			c9.9-4.7,18.9-10.8,27-17.8C325.1,289.6,320.2,279.2,320.2,267.6z"/>
		<rect x="252.9" y="264.5" class="st0" width="6.2" height="67.3"/>
		<path class="st1" d="M209.2,349.2h11.8v11.3h-11.8v6.2h29.3v11.3h-29.3v6.2h11.8v11.3h-10.4c2,3.7,5.9,6.2,10.4,6.2H291
			c4.5,0,8.4-2.5,10.4-6.2h-62.8v-11.3h64.2v-6.2H256v-11.3h46.8v-6.2h-64.2v-11.3h64.2v-6.2h-93.5V349.2z"/>
		<path class="st2" d="M247.3,419.1h17.4c4.5,0,8.5-2.5,10.5-6.3h-38.4C238.8,416.6,242.8,419.1,247.3,419.1z"/>
		<circle class="st0" cx="290.9" cy="250.1" r="3.1"/>
		<path class="st3" d="M360.8,238.3c-16.1,0-29.3,13.1-29.3,29.3s13.1,29.3,29.3,29.3s29.3-13.1,29.3-29.3S376.9,238.3,360.8,238.3z
			 M351.3,283.6l-14.7-14.7l8-8l8.1,8.1l22.3-14.9l6.2,9.4L351.3,283.6z"/>
		<circle class="st0" cx="221.1" cy="250.1" r="3.1"/>
		<rect x="100.1" y="108" transform="matrix(0.5 -0.866 0.866 0.5 -57.6098 155.3128)" class="st4" width="11.3" height="39"/>
		<rect x="63.9" y="208.4" class="st4" width="39" height="11.3"/>
		
			<rect x="87.9" y="294.5" transform="matrix(0.866 -0.5001 0.5001 0.866 -135.6785 93.9282)" class="st4" width="39" height="11.3"/>
		<rect x="408.4" y="291.1" transform="matrix(0.5 -0.866 0.866 0.5 -54.1937 509.387)" class="st4" width="11.3" height="21.1"/>
		<rect x="409.1" y="205" class="st4" width="39" height="11.3"/>
		<rect x="385.1" y="119" transform="matrix(0.866 -0.5001 0.5001 0.866 -8.0817 219.0139)" class="st4" width="39" height="11.3"/>
		<path class="st4" d="M381.7,232.8c1.4-7.6,2.2-15.4,2.2-23.3c0-70.5-57.4-127.9-127.9-127.9S128.1,139,128.1,209.5
			c0,47.9,27.3,92.2,69.9,114v8.3h-11.8v11.3H198v46.7c0,12.7,10.4,23.1,23.1,23.1h3.8c2.5,10,11.6,17.5,22.4,17.5h17.4
			c10.8,0,19.9-7.5,22.4-17.5h3.8c12.7,0,23.1-10.4,23.1-23.1v-46.7h11.8v-11.3H314v-8.3c10.4-5.3,19.9-12,28.3-19.8
			c5.5,2.8,11.8,4.4,18.4,4.4c22.4,0,40.6-18.2,40.6-40.6C401.3,252.9,393.4,239.9,381.7,232.8z M264.7,419.1h-17.4
			c-4.5,0-8.5-2.5-10.5-6.3h38.4C273.2,416.6,269.3,419.1,264.7,419.1z M302.8,349.2h-64.2v11.3h64.2v6.2H256v11.3h46.8v6.2h-64.2
			v11.3h62.8c-2,3.7-5.9,6.2-10.4,6.2h-69.9c-4.5,0-8.4-2.5-10.4-6.2h10.4v-11.3h-11.8v-6.2h29.3v-11.3h-29.3v-6.2h11.8v-11.3h-11.8
			v-6.2h93.5V349.2z M252.9,331.8v-67.3h6.2v67.3H252.9z M306,314.9l-3.2,1.5v15.4h-32.4v-67.3h20.5c7.9,0,14.4-6.4,14.4-14.4
			s-6.4-14.4-14.4-14.4c-7.9,0-14.4,6.4-14.4,14.4c0,1.1,0.1,2.1,0.3,3.1h-41.8c0.2-1,0.3-2,0.3-3.1c0-7.9-6.4-14.4-14.4-14.4
			c-7.9,0-14.4,6.4-14.4,14.4s6.4,14.4,14.4,14.4h20.6v67.3h-32.4v-15.4l-3.2-1.5c-40.5-19.2-66.6-60.6-66.6-105.4
			c0-64.3,52.3-116.6,116.6-116.6s116.6,52.3,116.6,116.6c0,6.4-0.5,12.7-1.6,18.8c-3.3-0.9-6.7-1.3-10.3-1.3
			c-22.4,0-40.6,18.2-40.6,40.6c0,11.6,4.9,22,12.7,29.4C324.9,304.1,315.9,310.2,306,314.9z M287.8,250.1c0-1.7,1.4-3.1,3.1-3.1
			c1.7,0,3.1,1.4,3.1,3.1c0,1.7-1.4,3.1-3.1,3.1C289.2,253.2,287.8,251.8,287.8,250.1z M224.2,250.1c0,1.7-1.4,3.1-3.1,3.1
			c-1.7,0-3.1-1.4-3.1-3.1c0-1.7,1.4-3.1,3.1-3.1C222.8,247,224.2,248.4,224.2,250.1z M360.8,296.9c-16.1,0-29.3-13.1-29.3-29.3
			s13.1-29.3,29.3-29.3s29.3,13.1,29.3,29.3S376.9,296.9,360.8,296.9z"/>
		<polygon class="st4" points="352.8,269.1 344.6,260.9 336.7,268.9 351.3,283.6 381.4,263.5 375.1,254.2 		"/>
	</g>
</g>
</svg>
