<svg xmlns="http://www.w3.org/2000/svg" width="48" height="48" viewBox="0 0 48 48"><defs><style>.cls-1{fill:#a4b0c0;}.cls-2{fill:#d0d7df;}.cls-3{fill:#fa5c66;}.cls-4{fill:#2ebc70;}.cls-5{fill:#35dc86;}.cls-6{fill:none;stroke:#474c54;stroke-linecap:round;stroke-linejoin:round;stroke-width:2px;}.cls-7{fill:#768ba0;}</style></defs><title>46-Mail Box</title><g id="_46-Mail_Box" data-name="46-Mail Box"><g id="_Group_" data-name="&lt;Group&gt;"><path class="cls-1" d="M26,39v7a1,1,0,0,1-1,1H23a1,1,0,0,1-1-1V39Z"/><polygon class="cls-2" points="23 34 26 34 26 39 22 39 22 34 23 34"/><path class="cls-3" d="M37,8v4H31V1h4a1.959,1.959,0,0,1,2,2Z"/><path class="cls-4" d="M31,12h6V8h6a4,4,0,0,1,4,4V34H23V8h8Z"/><path class="cls-5" d="M23,12V34H1V12A4,4,0,0,1,5,8H23Z"/><path class="cls-6" d="M23,12V34H1V12A4,4,0,0,1,5,8H27"/><path class="cls-6" d="M23,34H47V12a4,4,0,0,0-4-4H41"/><path class="cls-6" d="M31,12h6V3a1.959,1.959,0,0,0-2-2H31V21H29"/><path class="cls-6" d="M22,34V46a1,1,0,0,0,1,1h2a1,1,0,0,0,1-1V34"/><polyline class="cls-6" points="20 39 22 39 26 39 28 39"/></g><line class="cls-6" x1="5" y1="30" x2="19" y2="30"/><g id="_Group_2" data-name="&lt;Group&gt;"><rect class="cls-7" x="5" y="17" width="14" height="9"/><path class="cls-2" d="M19,13v4H5V13a1,1,0,0,1,1-1H18A1,1,0,0,1,19,13Z"/><path class="cls-6" d="M19,26V13a1,1,0,0,0-1-1H6a1,1,0,0,0-1,1V26"/><line class="cls-6" x1="5" y1="17" x2="19" y2="17"/></g></g></svg>