<?xml version="1.0" encoding="iso-8859-1"?>
<!-- Generator: Adobe Illustrator 19.0.0, SVG Export Plug-In . SVG Version: 6.00 Build 0)  -->
<svg xmlns="http://www.w3.org/2000/svg" xmlns:xlink="http://www.w3.org/1999/xlink" version="1.1" id="Layer_1" x="0px" y="0px" viewBox="0 0 512.001 512.001" style="enable-background:new 0 0 512.001 512.001;" xml:space="preserve">
<path style="fill:#45CE73;" d="M450.842,379.588l-72.694-72.691c-7.248-7.248-18.994-7.246-26.242,0  c-27.558,27.555-9.283,9.281-50.174,50.174c-7.193,7.192-7.239,18.811-0.156,26.073c-9.92,7.011-24.13,8.146-42.33,3.357  C178.16,365.176,84.692,243.818,116.797,198.363c7.259,7.084,18.881,7.041,26.075-0.152l18.953-18.954  c7.134-7.134,24.174-24.174,31.222-31.222c7.247-7.247,7.245-18.998,0-26.242l-72.693-72.695  c-7.246-7.247-18.995-7.245-26.242,0.002C65.763,77.447,68.383,74.828,43.936,99.277c-6.926,6.927-7.65,18.556,0.224,26.465  c-143.479,154.443,175.648,473.47,330.04,330.04c7.956,7.889,19.561,7.13,26.465,0.226c40.591-40.591,28.441-28.441,50.177-50.178  C458.086,398.584,458.084,386.836,450.842,379.588z"/>
<g>
	<path style="fill:#34B75C;" d="M378.148,306.897c-7.248-7.248-18.994-7.246-26.242,0c-27.558,27.555-9.283,9.281-50.174,50.174   c-7.193,7.192-7.239,18.811-0.156,26.073c-9.92,7.011-24.13,8.146-42.33,3.357c-22.194-5.837-47.276-20.123-71.063-40.174   c46.762,49.577,104.348,76.149,133.144,61.997c4.021-2.263,1.588-5.901,1.588-5.901l0.017-0.003   c-4.288-7.132-3.38-16.509,2.769-22.658c42.431-42.433,22.081-22.083,50.174-50.175c5.838-5.836,14.59-6.965,21.564-3.398   L378.148,306.897z"/>
	<path style="fill:#34B75C;" d="M120.353,49.098c-7.246-7.247-18.995-7.245-26.242,0.002C65.763,77.447,68.383,74.828,43.936,99.277   c-6.926,6.927-7.65,18.556,0.224,26.465c-76.785,82.652-22.741,211.114,73.862,295.334C27.685,328.429,6.48,220.341,64.354,152.688   c0.046-0.063,0.088-0.124,0.145-0.192c3.194-3.862,0.887-7.423,0.887-7.423l0.008-0.004c-4.594-7.182-3.763-16.827,2.512-23.103   c24.622-24.622,21.65-21.651,50.176-50.175c5.836-5.837,14.59-6.966,21.562-3.402L120.353,49.098z"/>
</g>
<path style="fill:#F23B3B;" d="M502,76.959l-77.064-55.855c-3.808-2.761-9.155-0.032-9.155,4.671v33.935h-83.527  c-8.271,0-15.001,6.729-15.001,14.999v13.846c0,8.27,6.73,14.999,15.001,14.999h83.527v33.934c0,4.696,5.343,7.432,9.155,4.671  L502,86.301C505.179,83.997,505.17,79.26,502,76.959z"/>
<path style="fill:#C62222;" d="M493.818,71.03c-72.554,52.585-70.506,52.628-74.891,50.393c-1.932-0.985-3.146-2.971-3.146-5.139  v21.203c0,4.696,5.343,7.432,9.155,4.671L502,86.302c1.497-1.086,2.383-2.821,2.383-4.67  C504.383,77.915,502.141,77.063,493.818,71.03z"/>
<path style="fill:#88DCE5;" d="M234.639,194.07l77.064-55.857c1.755-1.27,4.075-1.453,6.009-0.467  c1.932,0.986,3.146,2.972,3.146,5.139v33.935h83.527c8.271,0,15.002,6.728,15.002,14.999v13.845c0,8.271-6.731,14.999-15.002,14.999  h-83.527v33.936c0,2.167-1.214,4.153-3.146,5.138c-4.397,2.242-2.456,2.108-83.073-56.323  C231.462,201.108,231.469,196.369,234.639,194.07z"/>
<path style="fill:#74C4C4;" d="M315.091,238.639c-2.675,0,1.809,2.669-71.908-50.761c-8.655,6.274-10.928,7.119-10.928,10.865  c0,1.848,0.887,3.586,2.383,4.671c80.504,58.347,78.676,58.565,83.073,56.323c1.932-0.985,3.146-2.971,3.146-5.138V232.87  C320.858,236.061,318.268,238.639,315.091,238.639z"/>
<path style="fill:#C62222;" d="M403.625,82.351h-71.371c-6.999,0-12.879-4.827-14.525-11.321c-0.617,2.42-0.477,2.343-0.477,17.525  c0,8.27,6.73,14.999,15.001,14.999h83.527V90.398C415.247,87.009,412.84,82.351,403.625,82.351z"/>
<path style="fill:#74C4C4;" d="M418.844,187.877c-1.737,6.363-7.555,11.058-14.459,11.058h-70.836  c-11.784,0-12.642,8.441-12.691,10.291v11.437h83.527c8.271,0,15.002-6.728,15.002-14.999  C419.387,190.504,419.546,190.45,418.844,187.877z"/>
<path d="M383.41,301.712c-10.168-10.166-26.712-10.168-36.881,0c-5.844,5.844-42.885,42.885-50.237,50.237  c-7.652,7.65-9.53,19.019-5.601,28.496c-12.867,4.302-30.48-0.402-43.086-5.422c-3.847-1.529-8.21,0.346-9.742,4.195  c-1.531,3.849,0.347,8.21,4.195,9.742c5.127,2.04,10.203,3.727,15.088,5.012c20.438,5.377,36.795,3.866,48.62-4.489  c1.793-1.267,2.94-3.255,3.141-5.44c0.2-2.187-0.567-4.35-2.1-5.921c-4.214-4.32-4.173-11.303,0.091-15.566l20.418-20.418  l88.454,88.451l-20.421,20.421c-4.009,4.011-10.882,4.741-15.915-0.248c-2.857-2.832-7.438-2.906-10.385-0.169  c-68.413,63.558-178.481,34.393-266.366-53.493c-88.737-88.736-116.491-198.548-53.49-266.363c2.53-2.724,2.959-7.244-0.415-10.632  c-4.318-4.32-4.319-11.35,0-15.669l20.421-20.421l88.452,88.455l-20.42,20.421c-4.266,4.263-11.247,4.302-15.566,0.087  c-3.28-3.202-8.692-2.741-11.364,1.041c-8.354,11.826-9.862,28.186-4.485,48.62c12.943,49.218,62.74,105.599,112.179,134.463  c1.188,0.694,2.49,1.024,3.774,1.024c7.608,0,10.391-10.124,3.788-13.978C159.898,325.81,107.014,245.973,119.34,209.093  c9.477,3.929,20.844,2.054,28.497-5.598l50.238-50.238c10.19-10.19,10.193-26.69,0-36.882l-46.578-46.579  c-2.93-2.928-7.678-2.928-10.607,0c-2.929,2.93-2.929,7.678,0,10.607l46.579,46.579c4.329,4.329,4.33,11.339-0.001,15.668  l-19.212,19.213L79.805,73.408l19.211-19.211c2.093-2.093,4.875-3.246,7.835-3.246c5.744-0.002,7.593,3.004,17.037,12.449  c2.929,2.93,7.678,2.929,10.606,0.001c2.93-2.929,2.93-7.678,0.001-10.606c-9.157-9.158-14.788-16.846-27.646-16.844  c-6.966,0-13.515,2.714-18.439,7.64L63.914,68.085c-0.007,0.007-0.014,0.012-0.02,0.018c-0.007,0.007-0.012,0.014-0.018,0.02  L38.169,93.83c-8.504,8.505-9.895,21.471-4.179,31.429C-104.094,287.36,212.608,603.74,374.527,465.792  c9.968,5.719,22.927,4.327,31.429-4.175l50.239-50.24c10.165-10.166,10.166-26.71,0-36.881L383.41,301.712z M445.588,400.771  l-19.213,19.212l-88.454-88.451l19.213-19.213c4.322-4.32,11.351-4.32,15.669,0l72.784,72.781  C449.907,389.422,449.908,396.451,445.588,400.771z"/>
<path d="M506.516,70.716l-29.162-21.138c-3.353-2.43-8.043-1.685-10.474,1.671c-2.432,3.354-1.683,8.043,1.671,10.474l27.236,19.742  l-72.501,52.549v-30.599c0-4.143-3.357-7.5-7.5-7.5h-83.632c-4.146,0-7.52-3.373-7.52-7.519V74.534c0-4.146,3.373-7.519,7.52-7.519  h83.632c4.143,0,7.5-3.357,7.5-7.5v-30.6l23.963,17.367c3.353,2.432,8.042,1.683,10.474-1.671c2.432-3.354,1.683-8.043-1.671-10.474  l-26.696-19.35c-4.059-2.941-9.358-3.354-13.829-1.076c-4.466,2.28-7.24,6.812-7.24,11.825v26.478h-76.132  c-12.417,0-22.52,10.102-22.52,22.519v13.863c0,12.417,10.103,22.519,22.52,22.519h76.132v26.477c0,5.016,2.775,9.548,7.243,11.827  c1.859,0.948,3.945,1.449,6.032,1.449c5.933,0,1.465,2.059,84.955-58.453c3.435-2.49,5.484-6.509,5.484-10.749  C512.001,77.225,509.952,73.206,506.516,70.716z"/>
<path d="M230.017,209.473c83.652,60.631,79.02,58.453,84.954,58.453c7.212,0,13.275-5.808,13.275-13.276v-26.478h76.132  c12.418,0,22.521-10.102,22.521-22.519v-13.863c0-12.416-10.103-22.518-22.521-22.518h-76.131v-26.478  c0-10.809-12.279-17.117-21.068-10.75l-77.161,55.927c-0.001,0-0.001,0-0.001,0c-3.435,2.49-5.484,6.509-5.484,10.75  C224.532,202.964,226.582,206.983,230.017,209.473z M313.246,146.174v30.601c0,4.143,3.357,7.5,7.5,7.5h83.632  c4.146,0,7.521,3.372,7.521,7.518v13.863c0,4.146-3.374,7.519-7.521,7.519h-83.632c-4.143,0-7.5,3.357-7.5,7.5v30.6l-72.501-52.549  L313.246,146.174z M238.826,200.114c-0.002,0.002-0.004,0.003-0.006,0.005h-0.001L238.826,200.114z"/>
<g>
</g>
<g>
</g>
<g>
</g>
<g>
</g>
<g>
</g>
<g>
</g>
<g>
</g>
<g>
</g>
<g>
</g>
<g>
</g>
<g>
</g>
<g>
</g>
<g>
</g>
<g>
</g>
<g>
</g>
</svg>
